# xmcd
#
# Track frame offsets: 
#        150
#        12589
#        24076
#        33381
#        47550
#        59130
#        71171
#        81474
#        93090
#        108882
#        118016
#        132804
#
# Disc length: 1885 seconds
#
# Revision: 0
# Processed by: cddbd v1.5.2PL0 Copyright (c) Steve Scherf et al.
# Submitted via: ExactAudioCopy v0.99pb3
#
DISCID=9d075b0c
DTITLE=Ronny - Oh My Darling Caroline
DYEAR=1964
DGENRE=Schlager
TTITLE0=Oh My Darling Caroline
TTITLE1=Ein Stern geht auf
TTITLE2=O Susanna
TTITLE3=Und der Regen der rinnt
TTITLE4=Old Charly
TTITLE5=Mexico Moon
TTITLE6=Michael
TTITLE7=Anna-Maria
TTITLE8=Lu La Lu
TTITLE9=Geisterreiter
TTITLE10=Swanee River
TTITLE11=Goddnight, Irene
EXTD=
EXTT0=
EXTT1=
EXTT2=
EXTT3=
EXTT4=
EXTT5=
EXTT6=
EXTT7=
EXTT8=
EXTT9=
EXTT10=
EXTT11=
PLAYORDER=
